<svg id="backspace-arrow" xmlns="http://www.w3.org/2000/svg" width="34.318" height="21.972" viewBox="0 0 34.318 21.972">
  <g id="backspace" transform="translate(0 0)">
    <path id="Path_182" data-name="Path 182" d="M31.458,76.5H10.009a2.7,2.7,0,0,0-2.288,1.1L0,87.486l7.722,9.887a3.052,3.052,0,0,0,2.288,1.1H31.458a2.683,2.683,0,0,0,2.86-2.441V78.941A2.683,2.683,0,0,0,31.458,76.5Zm-4.29,15.38-2,1.709-5.148-4.394-5.148,4.394-2-1.709,5.148-4.394-5.148-4.394,2-1.709,5.148,4.394,5.148-4.394,2,1.709-5.148,4.394Z" transform="translate(0 -76.5)" fill="#080808"/>
  </g>
</svg>
