<svg xmlns="http://www.w3.org/2000/svg" width="26.88" height="26.922" viewBox="0 0 26.88 26.922">
  <g id="Group_336" data-name="Group 336" transform="translate(-961.482 -675.644)">
    <path id="Path_3450" data-name="Path 3450" d="M153.749,338.3H134.495a3.842,3.842,0,0,1-3.834-3.834V315.21a3.842,3.842,0,0,1,3.834-3.834h19.212a3.842,3.842,0,0,1,3.834,3.834v19.212A3.788,3.788,0,0,1,153.749,338.3Z" transform="translate(830.821 364.268)" fill="#f60"/>
    <g id="Group_335" data-name="Group 335" transform="translate(966.291 678.749)">
      <path id="Path_56" data-name="Path 56" d="M171.817,371.119h4.351a.333.333,0,0,0,.345-.3.329.329,0,0,0-.086-.215.364.364,0,0,0-.258-.086h-4.307a.278.278,0,0,1-.258-.259.273.273,0,0,1,.215-.258h3.92a.278.278,0,0,0,.258-.259.369.369,0,0,0-.258-.3l-4.221-.431h-.258a1.364,1.364,0,0,0-.991.388l-1.163.947h-.043a2.825,2.825,0,0,1-1.637.6h-.948v.818h.948a2.955,2.955,0,0,1,1.68.6l1.163.948a1.765,1.765,0,0,0,1.206.388h.043l4.265-.431a.241.241,0,0,0,.215-.258c0-.086-.043-.129-.086-.215a.329.329,0,0,0-.215-.086h-3.877a.258.258,0,1,1,0-.517h4.351a.612.612,0,0,0,.258-.086.328.328,0,0,0,.086-.215.37.37,0,0,0-.345-.345h-4.307a.278.278,0,0,1-.258-.258" transform="translate(-162.799 -358.458)" fill="#fff"/>
      <g id="Group_80" data-name="Group 80" transform="translate(0 0)">
        <path id="Path_57" data-name="Path 57" d="M168.516,339.412a.856.856,0,0,0-1.034.646,5.654,5.654,0,0,1-5.557,4.307,5.475,5.475,0,1,1,0-10.941,5.672,5.672,0,0,1,5.384,3.7.879.879,0,0,0,1.12.517.855.855,0,0,0,.56-1.077,7.438,7.438,0,0,0-7.021-4.824,9.125,9.125,0,0,0-1.12.086l4.092-4.351a.755.755,0,0,0-.043-1.077.8.8,0,0,0-1.077.043l-5.944,6.246,1.551-4.566a.746.746,0,0,0-.517-.947.8.8,0,0,0-.991.474l-2.757,8.184-.862-3.791a.774.774,0,0,0-1.508.345l1.852,7.926c0,.043.043.086.043.172l.129.56a.372.372,0,0,0,.129.258,7.531,7.531,0,0,0,14.3-.862A.978.978,0,0,0,168.516,339.412Z" transform="translate(-152.347 -325.804)" fill="#fff"/>
        <path id="Path_58" data-name="Path 58" d="M167.04,338.52a.7.7,0,0,1,.3.172.355.355,0,0,1,.043.3,7.07,7.07,0,0,1-13.439.775l-.043-.086a.133.133,0,0,1-.043-.086l-2.024-8.658a.324.324,0,0,1,.043-.215.237.237,0,0,1,.215-.129.382.382,0,0,1,.431.259l1.206,5.3L157,326.546a.355.355,0,0,1,.431-.215.428.428,0,0,1,.215.172.192.192,0,0,1,0,.215l-2.2,6.461,7.237-7.711a.451.451,0,0,1,.517-.043.312.312,0,0,1,0,.431l-4.954,5.3,1.249-.172a9.845,9.845,0,0,1,1.077-.086,6.981,6.981,0,0,1,6.634,4.566.367.367,0,0,1,0,.3.44.44,0,0,1-.258.215.448.448,0,0,1-.56-.258,6.167,6.167,0,0,0-5.772-4.006,5.905,5.905,0,1,0,0,11.8,6.108,6.108,0,0,0,5.988-4.652C166.566,338.606,166.781,338.477,167.04,338.52Zm-6.5,6.634a7.818,7.818,0,0,0,7.667-5.987,1.23,1.23,0,0,0-.172-.948,1.112,1.112,0,0,0-.818-.56,1.347,1.347,0,0,0-1.551.991,5.237,5.237,0,0,1-5.126,3.963,5.024,5.024,0,1,1,0-10.037,5.2,5.2,0,0,1,4.954,3.4,1.279,1.279,0,0,0,1.637.776,1.446,1.446,0,0,0,.775-.646,1.211,1.211,0,0,0,.043-.948,7.762,7.762,0,0,0-7.452-5.169l3.317-3.532a1.022,1.022,0,0,0,.3-.862,1.223,1.223,0,0,0-.388-.818,1.211,1.211,0,0,0-1.68.086l-4.48,4.781.9-2.714a1.117,1.117,0,0,0-.086-.9,1.046,1.046,0,0,0-.732-.6,1.209,1.209,0,0,0-1.508.775l-2.24,6.763-.56-2.326a1.191,1.191,0,0,0-1.422-.9,1.387,1.387,0,0,0-.775.517,1.212,1.212,0,0,0-.172.862L153,339.77a2.964,2.964,0,0,0,.129.344A7.815,7.815,0,0,0,160.535,345.154Z" transform="translate(-150.957 -324.481)" fill="#fff"/>
      </g>
    </g>
  </g>
</svg>
