<svg version="1.1" id="Layer_1" xmlns="http://www.w3.org/2000/svg" xmlns:xlink="http://www.w3.org/1999/xlink" x="0px" y="0px" viewBox="0 0 295 128.9" style="enable-background:new 0 0 295 128.9;" xml:space="preserve">
<style type="text/css">
	.sss0{fill:url(#SVGID_1_);}
	.sss1{fill:#444444;}
</style>
<linearGradient id="SVGID_1_" gradientUnits="userSpaceOnUse" x1="-10.1218" y1="141.3166" x2="321.6482" y2="-30.3434" gradientTransform="matrix(1 0 0 -1 -2 123.32)">
	<stop offset="0" style="stop-color:#A20054"></stop>
	<stop offset="1" style="stop-color:#F1802A"></stop>
</linearGradient>
<path class="sss0" d="M15.3,79.5c-0.4,0.3-0.9,0.4-1.3,0.2C9.9,78.1,0,67.1,0,64.4C0,57.9,81,0,89.9,0c0,0,21.5,45.4,22.5,45.4
	c2.2,0,25.6-16.3,51.5-16.3c22.7,0,19.5,26.6,23.1,26.6c6.9,0,36.3-16.5,61.2-16.5c0,0-12.1,18.7,13.3,18.7
	c11.9,0,26.1-2.9,30.2-2.9c1.5,0,3.2,12.4,3.2,16.6c0,2.1-15.1,8.9-36.5,8.9c-24.7,0-25.3-15.7-27.2-15.7c-6,0-33.1,13.4-47.8,13.4
	c-23.4,0-14.7-25.3-24.8-25.3c-17.5,0-51.6,21.8-55.4,24.2c-0.3,0.2-0.7,0.2-1,0C96.6,74,78.2,35.6,78.2,35.6S53.4,49.2,15.3,79.5z"></path>
<path class="sss1" d="M8.8,128.8c-0.3,0-0.7-0.1-0.9-0.4c-0.2-0.2-0.4-0.6-0.4-0.9V120c0-1,0.2-2,0.6-2.9c0.8-1.8,2.2-3.3,4.1-4.1
	c0.9-0.4,1.9-0.6,2.9-0.6c0.4,0,0.7,0.1,0.9,0.4c0.5,0.5,0.5,1.3,0,1.9c-0.2,0.2-0.6,0.4-0.9,0.4c-0.7,0-1.3,0.1-1.9,0.4
	c-0.6,0.2-1.1,0.6-1.6,1c-0.5,0.4-0.8,1-1.1,1.6c-0.3,0.6-0.4,1.3-0.4,1.9v7.5c0,0.4-0.1,0.7-0.4,0.9C9.5,128.6,9.2,128.8,8.8,128.8
	z"></path>
<path class="sss1" d="M39.5,128.9c-0.3,0-0.7-0.1-0.9-0.4c-0.2-0.2-0.4-0.6-0.4-0.9v-0.8c-0.7,0.7-1.6,1.2-2.5,1.5
	c-0.9,0.4-1.9,0.5-2.9,0.5c-1.1,0-2.1-0.2-3.1-0.6c-1-0.4-1.9-1-2.6-1.7c-0.8-0.7-1.4-1.6-1.8-2.6c-0.8-2-0.8-4.2,0-6.1
	c0.4-1,1-1.9,1.8-2.6c0.7-0.8,1.6-1.3,2.6-1.7c2-0.8,4.2-0.8,6.2,0c1,0.4,1.9,1,2.6,1.7c0.8,0.7,1.4,1.6,1.8,2.6
	c0.4,0.9,0.6,2,0.6,3c0,0.1,0,0.2,0,0.3c0,0.1,0,0.3,0,0.4v5.9c0,0.3-0.1,0.7-0.4,0.9C40.3,128.7,39.9,128.9,39.5,128.9z
	 M32.8,115.6c-0.7,0-1.5,0.1-2.2,0.4c-1.3,0.5-2.4,1.6-2.9,2.8c-0.6,1.3-0.6,2.8,0,4.1c0.3,0.6,0.7,1.2,1.2,1.7
	c0.5,0.5,1.1,0.9,1.8,1.1c2,0.8,4.2,0.4,5.8-0.9c0.5-0.4,0.9-1,1.2-1.5c0.3-0.6,0.5-1.2,0.6-1.8v-1.2c-0.1-0.6-0.3-1.3-0.6-1.8
	c-0.3-0.6-0.7-1.1-1.2-1.5c-0.5-0.4-1.1-0.8-1.7-1C34.1,115.7,33.4,115.6,32.8,115.6z"></path>
<path class="sss1" d="M55.7,128.9h-5.3c-0.3,0-0.7-0.1-0.9-0.4c-0.5-0.5-0.5-1.3,0-1.9c0.2-0.2,0.6-0.4,0.9-0.4h5.3
	c0.6,0,1.1-0.2,1.5-0.6c0.4-0.4,0.7-0.9,0.6-1.5c0-0.5-0.2-1.1-0.6-1.5c-0.4-0.4-0.9-0.6-1.4-0.7c0,0-0.1,0-0.1,0l0,0h-2.2
	c-0.1,0-0.2,0-0.3-0.1c-1.2-0.1-2.2-0.7-3-1.6c-0.4-0.4-0.7-0.9-0.9-1.4c-0.2-0.5-0.3-1.1-0.3-1.7c0-0.6,0.1-1.3,0.4-1.9
	c0.2-0.6,0.6-1.1,1-1.5c0.4-0.4,1-0.8,1.5-1c0.6-0.3,1.2-0.4,1.9-0.4h5.3c0.3,0,0.7,0.1,0.9,0.4c0.2,0.2,0.4,0.6,0.4,0.9
	c0,0.4-0.1,0.7-0.4,0.9c-0.2,0.2-0.6,0.4-0.9,0.4h-5.2c-1.2,0-2.1,1-2.1,2.1c0,0,0,0.1,0,0.1c0,0.6,0.2,1.1,0.6,1.5
	c0.4,0.4,0.9,0.7,1.5,0.7h1.6c0.1,0,0.1,0,0.2,0c0.6,0,1.3,0.1,1.8,0.4c1.8,0.7,2.9,2.5,2.9,4.4c0,0.6-0.1,1.3-0.4,1.9
	c-0.5,1.1-1.4,2-2.5,2.5C57,128.8,56.4,129,55.7,128.9z"></path>
<path class="sss1" d="M98.5,128.9c-0.4,0-0.7-0.1-0.9-0.4c-0.2-0.2-0.4-0.6-0.4-0.9v-0.8c-0.7,0.7-1.6,1.2-2.5,1.5
	c-0.9,0.4-1.9,0.5-2.9,0.5c-1.1,0-2.1-0.2-3.1-0.6c-1-0.4-1.9-1-2.6-1.7c-0.8-0.7-1.4-1.6-1.8-2.6c-0.8-2-0.8-4.2,0-6.1
	c0.4-1,1-1.9,1.8-2.6c0.7-0.8,1.6-1.3,2.6-1.7c2-0.8,4.2-0.8,6.2,0c1,0.4,1.9,1,2.6,1.7c0.7,0.8,1.3,1.6,1.8,2.6
	c0.4,0.9,0.6,2,0.6,3c0,0.1,0,0.2,0,0.3s0,0.2,0,0.4v5.9c0,0.3-0.1,0.7-0.4,0.9C99.3,128.7,98.9,128.9,98.5,128.9z M91.7,115.6
	c-0.7,0-1.5,0.1-2.2,0.4c-1.3,0.5-2.3,1.6-2.9,2.8c-0.6,1.3-0.6,2.8,0,4.1c0.6,1.3,1.6,2.3,2.9,2.8c0.7,0.3,1.4,0.4,2.2,0.4
	c2,0,3.9-1.1,4.9-2.9c0.3-0.6,0.5-1.2,0.6-1.8v-1.2c-0.1-0.6-0.3-1.3-0.6-1.8c-0.3-0.6-0.7-1.1-1.2-1.5c-0.5-0.4-1.1-0.8-1.7-1
	C93.1,115.7,92.4,115.6,91.7,115.6z"></path>
<path class="sss1" d="M115.3,128.8c-1,0-1.9-0.2-2.8-0.5c-1.7-0.7-3.1-2.1-3.8-3.9c-0.4-0.9-0.5-1.8-0.5-2.8v-15.8
	c0-0.4,0.1-0.7,0.4-1c0.2-0.3,0.6-0.4,0.9-0.4c0.4,0,0.7,0.1,0.9,0.4c0.3,0.3,0.4,0.6,0.4,1v15.8c0,0.6,0.1,1.2,0.4,1.8
	c0.5,1.1,1.3,1.9,2.4,2.4c0.6,0.2,1.2,0.4,1.8,0.4c0.3,0,0.7,0.1,0.9,0.4c0.2,0.2,0.4,0.6,0.4,0.9c0,0.4-0.1,0.7-0.4,0.9
	C116,128.7,115.7,128.8,115.3,128.8z"></path>
<path class="sss1" d="M148,128.8c-0.4,0-0.7-0.1-0.9-0.4c-0.2-0.2-0.4-0.6-0.4-0.9c0-0.7-0.1-1.3-0.3-1.9c-0.2-0.6-0.5-1.1-0.9-1.6
	c-0.4-0.5-0.9-0.9-1.4-1.2c-0.5-0.3-1.1-0.6-1.8-0.7v5.5c0,0.7-0.5,1.3-1.2,1.3c0,0,0,0-0.1,0c-0.4,0-0.7-0.1-0.9-0.4
	c-0.2-0.2-0.4-0.6-0.4-0.9v-21.5c0-0.4,0.1-0.7,0.4-0.9c0.2-0.2,0.6-0.4,0.9-0.4c0.7,0,1.3,0.5,1.3,1.2c0,0,0,0,0,0.1v13
	c0.6-0.1,1.2-0.4,1.8-0.7c0.5-0.3,1-0.8,1.4-1.2c0.4-0.5,0.7-1,0.9-1.6c0.2-0.6,0.3-1.3,0.3-1.9c0-0.3,0.1-0.7,0.4-0.9
	c0.5-0.5,1.4-0.5,1.9,0c0.2,0.2,0.4,0.6,0.4,0.9c0,1.1-0.2,2.2-0.6,3.2c-0.4,1-1,1.9-1.8,2.7c-0.4,0.4-0.9,0.8-1.4,1.1
	c0.5,0.3,1,0.7,1.4,1.1c0.8,0.8,1.4,1.7,1.8,2.7c0.4,1,0.6,2.1,0.6,3.2c0,0.4-0.1,0.7-0.4,0.9C148.7,128.6,148.4,128.8,148,128.8z"></path>
<path class="sss1" d="M160.4,128.9L160.4,128.9c-0.3,0-0.7-0.1-0.9-0.4c-0.2-0.3-0.4-0.6-0.4-0.9V106c0-0.3,0.1-0.7,0.4-0.9
	c0.2-0.2,0.6-0.4,0.9-0.4c0.3,0,0.7,0.1,0.9,0.4c0.2,0.2,0.4,0.6,0.4,0.9v9.3c0.6-0.5,1.3-0.9,2-1.2c0.8-0.3,1.6-0.4,2.4-0.4
	c0.9,0,1.9,0.2,2.7,0.6c0.8,0.4,1.6,0.9,2.2,1.5c0.6,0.6,1.2,1.4,1.5,2.2c0.4,0.9,0.6,1.8,0.6,2.7v6.8c0,0.7-0.5,1.3-1.2,1.3
	c0,0,0,0-0.1,0c-0.7,0-1.3-0.6-1.3-1.3c0,0,0,0,0,0v-6.8c0-2.4-2-4.4-4.5-4.3c-0.6,0-1.1,0.1-1.6,0.3c-0.5,0.2-1,0.5-1.4,0.9
	c-0.4,0.4-0.7,0.9-0.9,1.4c-0.2,0.5-0.3,1.1-0.3,1.7v6.9c0,0.4-0.1,0.7-0.4,0.9C161.1,128.8,160.7,128.9,160.4,128.9z"></path>
<path class="sss1" d="M196.3,128.9c-0.3,0-0.7-0.1-0.9-0.4c-0.2-0.2-0.4-0.6-0.4-0.9v-0.8c-0.7,0.7-1.6,1.2-2.6,1.6
	c-2,0.7-4.1,0.7-6.1-0.1c-1-0.4-1.9-1-2.6-1.7c-0.8-0.7-1.4-1.6-1.8-2.6c-0.8-2-0.8-4.2,0-6.1c0.4-1,1-1.9,1.8-2.6
	c0.7-0.8,1.6-1.3,2.6-1.7c2-0.8,4.2-0.8,6.2,0c1,0.4,1.9,1,2.6,1.7c0.8,0.7,1.4,1.6,1.8,2.6c0.4,0.9,0.6,2,0.6,3c0,0.1,0,0.2,0,0.3
	c0,0.1,0,0.2,0,0.4v5.9c0,0.3-0.1,0.7-0.4,0.9C197,128.7,196.7,128.9,196.3,128.9z M189.5,115.6c-0.7,0-1.5,0.1-2.1,0.4
	c-1.3,0.5-2.4,1.6-2.9,2.8c-0.6,1.3-0.6,2.8,0,4.1c0.3,0.6,0.7,1.2,1.2,1.7c0.5,0.5,1.1,0.9,1.8,1.1c2,0.8,4.2,0.4,5.8-0.9
	c0.5-0.4,0.9-0.9,1.2-1.5c0.3-0.6,0.5-1.2,0.6-1.8v-1.2c-0.1-0.6-0.3-1.3-0.6-1.8c-0.3-0.6-0.7-1.1-1.2-1.5c-0.5-0.4-1.1-0.8-1.7-1
	C190.9,115.7,190.2,115.6,189.5,115.6L189.5,115.6z"></path>
<path class="sss1" d="M208.8,109.5c0,0.8-0.6,1.4-1.4,1.4s-1.4-0.6-1.4-1.4c0-0.8,0.6-1.4,1.4-1.4c0,0,0,0,0,0c0.4,0,0.7,0.1,1,0.4
	C208.6,108.8,208.8,109.1,208.8,109.5z M207.3,128.3c-0.4,0-0.7-0.1-0.9-0.4c-0.2-0.2-0.4-0.6-0.4-0.9v-13.1c0-0.7,0.6-1.3,1.3-1.3
	c0,0,0,0,0,0c0.3,0,0.7,0.1,0.9,0.4c0.3,0.2,0.4,0.6,0.4,0.9V127c0,0.3-0.1,0.7-0.4,0.9C208,128.2,207.7,128.3,207.3,128.3z"></path>
<path class="sss1" d="M234.1,112.5c0.9,0,1.8,0.2,2.6,0.6c0.8,0.4,1.5,1,2.1,1.6c0.6,0.7,1.1,1.5,1.4,2.4c0.3,0.9,0.5,1.9,0.5,2.8
	v7.5c0,0.3-0.1,0.7-0.4,0.9c-0.5,0.5-1.4,0.5-1.9,0c-0.2-0.2-0.4-0.6-0.4-0.9V120c0-1.3-0.4-2.5-1.2-3.5c-0.7-0.8-1.7-1.3-2.7-1.3
	c-0.5,0-1,0.1-1.4,0.3c-0.5,0.2-0.9,0.6-1.2,1c-0.8,1-1.3,2.3-1.2,3.5v7.5c0,0.3-0.1,0.7-0.4,0.9c-0.5,0.5-1.4,0.5-1.9,0
	c-0.2-0.2-0.4-0.6-0.4-0.9V120c0-1.3-0.4-2.5-1.2-3.5c-0.7-0.8-1.7-1.3-2.7-1.3c-0.5,0-1,0.1-1.4,0.3c-0.5,0.2-0.9,0.6-1.2,1
	c-0.8,1-1.2,2.3-1.2,3.5v7.5c0,0.3-0.1,0.7-0.4,0.9c-0.2,0.2-0.6,0.4-0.9,0.4c-0.3,0-0.7-0.1-0.9-0.4c-0.3-0.2-0.4-0.6-0.4-0.9V120
	c0-1,0.2-1.9,0.5-2.8c0.3-0.9,0.8-1.7,1.4-2.4c0.6-0.7,1.3-1.2,2.1-1.6c0.8-0.4,1.7-0.6,2.6-0.6c0.9,0,1.8,0.2,2.7,0.6
	c0.8,0.4,1.5,1,2.1,1.6c0.1,0.1,0.2,0.2,0.3,0.4c0.1,0.1,0.2,0.2,0.2,0.4c0.1-0.1,0.2-0.2,0.3-0.4c0.1-0.1,0.2-0.2,0.3-0.4
	c0.6-0.7,1.3-1.2,2.1-1.6C232.3,112.7,233.2,112.5,234.1,112.5z"></path>
<path class="sss1" d="M263.9,128.9c-0.3,0-0.7-0.1-0.9-0.4c-0.2-0.2-0.4-0.6-0.4-0.9v-0.8c-0.7,0.7-1.6,1.2-2.5,1.5
	c-2,0.7-4.1,0.7-6.1-0.1c-1-0.4-1.9-1-2.6-1.7c-0.8-0.7-1.4-1.6-1.8-2.6c-0.8-2-0.8-4.2,0-6.1c0.4-1,1-1.9,1.8-2.6
	c0.7-0.8,1.6-1.3,2.6-1.7c2-0.8,4.2-0.8,6.2,0c1,0.4,1.9,1,2.6,1.7c0.8,0.7,1.4,1.6,1.8,2.6c0.4,0.9,0.6,2,0.6,3c0,0.1,0,0.2,0,0.3
	c0,0.1,0,0.2,0,0.4v5.9c0,0.3-0.1,0.7-0.4,0.9C264.6,128.7,264.2,128.9,263.9,128.9z M257.1,115.6c-0.7,0-1.5,0.1-2.1,0.4
	c-0.6,0.3-1.2,0.7-1.7,1.2c-0.5,0.5-0.9,1.1-1.2,1.7c-0.6,1.3-0.6,2.8,0,4.1c0.3,0.6,0.7,1.2,1.2,1.7c0.5,0.5,1.1,0.9,1.7,1.1
	c0.7,0.3,1.4,0.4,2.1,0.4c0.7,0,1.4-0.1,2-0.4c0.6-0.2,1.2-0.6,1.7-1c0.5-0.4,0.9-1,1.2-1.5c0.3-0.6,0.5-1.2,0.6-1.8v-1.2
	c-0.1-0.6-0.3-1.3-0.6-1.8c-0.3-0.6-0.7-1.1-1.2-1.5c-0.5-0.4-1.1-0.8-1.7-1C258.4,115.7,257.8,115.6,257.1,115.6z"></path>
<path class="sss1" d="M274.8,128.9L274.8,128.9c-0.3,0-0.7-0.1-0.9-0.4c-0.2-0.2-0.4-0.6-0.4-0.9V106c-0.1-0.7,0.5-1.3,1.2-1.4
	s1.3,0.5,1.4,1.2c0,0.1,0,0.2,0,0.2v9.3c0.6-0.5,1.3-0.9,2-1.2c0.8-0.3,1.6-0.4,2.4-0.4c0.9,0,1.9,0.2,2.7,0.6
	c1.7,0.7,3,2.1,3.7,3.7c0.4,0.9,0.6,1.8,0.6,2.7v6.8c0,0.3-0.1,0.7-0.4,0.9c-0.5,0.5-1.3,0.5-1.9,0c-0.2-0.2-0.4-0.6-0.4-0.9v-6.8
	c0-0.6-0.1-1.2-0.3-1.7c-0.2-0.5-0.5-1-0.9-1.4c-0.4-0.4-0.9-0.7-1.4-0.9c-1.1-0.5-2.3-0.5-3.4,0c-0.5,0.2-1,0.5-1.4,0.9
	c-0.4,0.4-0.7,0.9-0.9,1.4c-0.2,0.5-0.4,1.1-0.4,1.7v6.9c0,0.4-0.1,0.7-0.4,0.9C275.5,128.8,275.2,128.9,274.8,128.9z"></path>
</svg>