<svg xmlns="http://www.w3.org/2000/svg" xmlns:xlink="http://www.w3.org/1999/xlink" width="85" height="80" viewBox="0 0 85 80">
  <defs>
    <clipPath id="clip-Artboard_13">
      <rect width="85" height="80"/>
    </clipPath>
  </defs>
  <g id="Artboard_13" data-name="Artboard – 13" clip-path="url(#clip-Artboard_13)">
    <rect width="85" height="80" fill="rgba(255,255,255,0)"/>
    <g id="Group_371" data-name="Group 371" transform="translate(0.62)">
      <g id="drive-thru" transform="translate(0 0)">
        <path id="Path_94" data-name="Path 94" d="M318.492,286.252a4.754,4.754,0,0,0,4.882,4.615h11.465v-9.23H323.374A4.754,4.754,0,0,0,318.492,286.252Zm0,0" transform="translate(-265.873 -237.631)"/>
        <path id="Path_95" data-name="Path 95" d="M447.883,2.379V77.621A2.45,2.45,0,0,0,450.4,80h5.264a2.45,2.45,0,0,0,2.515-2.379V2.379A2.45,2.45,0,0,0,455.662,0H450.4a2.45,2.45,0,0,0-2.516,2.379Zm0,0" transform="translate(-373.886 0)"/>
        <path id="Path_96" data-name="Path 96" d="M99.652,483.9a1.96,1.96,0,0,0,2.012,1.9h4.888a1.96,1.96,0,0,0,2.012-1.9v-2.2H99.652Zm0,0" transform="translate(-83.188 -406.427)"/>
        <path id="Path_97" data-name="Path 97" d="M160.761,251.566h-3.906l1.1,9.4h2.811a3.462,3.462,0,0,0,3.553-3.361v-2.676A3.461,3.461,0,0,0,160.761,251.566Zm0,0" transform="translate(-130.941 -212.259)"/>
        <path id="Path_98" data-name="Path 98" d="M21.826,190.923c-1.17-10.056-.767-6.6-1.764-15.152A6.97,6.97,0,0,0,13,169.785H0v21.086C22.447,190.872,20.975,190.852,21.826,190.923Zm0,0" transform="translate(0 -143.256)"/>
        <path id="Path_99" data-name="Path 99" d="M20.554,335.188H8.306l-.45,6.921A6.607,6.607,0,0,1,1.109,348.2H0v5.126H27.318a3.209,3.209,0,0,0,3.292-3.11V344.7A9.8,9.8,0,0,0,20.554,335.188ZM18.02,350.993a6.749,6.749,0,1,1,0-13.477,6.749,6.749,0,1,1,0,13.477Zm0,0" transform="translate(0 -282.815)"/>
        <path id="Path_100" data-name="Path 100" d="M2.829,341.909l.438-6.721H0v8.25H1.109A1.685,1.685,0,0,0,2.829,341.909Zm0,0" transform="translate(0 -282.815)"/>
        <path id="Path_101" data-name="Path 101" d="M98.479,380.539a1.984,1.984,0,1,0,2.094,1.981A2.043,2.043,0,0,0,98.479,380.539Zm0,0" transform="translate(-80.459 -321.08)"/>
        <path id="Path_102" data-name="Path 102" d="M244.406,208.754v2.754a2.076,2.076,0,0,1-2.128,2.014h-3.993a2.383,2.383,0,1,0,0,4.758h3.993a6.981,6.981,0,0,0,7.158-6.772v-2.754Zm0,0" transform="translate(-196.817 -176.136)"/>
        <path id="Path_103" data-name="Path 103" d="M249.783,11.164H229.66a2.45,2.45,0,0,0-2.515,2.379V34.9a2.45,2.45,0,0,0,2.515,2.379h20.123A2.45,2.45,0,0,0,252.3,34.9V13.543A2.45,2.45,0,0,0,249.783,11.164ZM234.124,34.259h-.959a2.383,2.383,0,1,1,0-4.758h.959a2.383,2.383,0,1,1,0,4.758Zm0-7.64h-.959a2.383,2.383,0,1,1,0-4.758h.959a2.383,2.383,0,1,1,0,4.758Zm0-7.639h-.959a2.383,2.383,0,1,1,0-4.758h.959a2.383,2.383,0,1,1,0,4.758Zm12.563,15.279h-4.62a2.383,2.383,0,1,1,0-4.758h4.62a2.383,2.383,0,1,1,0,4.758Zm0-7.64h-4.62a2.383,2.383,0,1,1,0-4.758h4.62a2.383,2.383,0,1,1,0,4.758Zm0-7.639h-4.62a2.383,2.383,0,1,1,0-4.758h4.62a2.383,2.383,0,1,1,0,4.758Zm0,0" transform="translate(-189.617 -9.42)"/>
      </g>
    </g>
  </g>
</svg>
