<svg id="Group_140" data-name="Group 140" xmlns="http://www.w3.org/2000/svg" width="38.098" height="44.148" viewBox="0 0 38.098 44.148">
  <path id="Path_204" data-name="Path 204" d="M-854.885,85a8.813,8.813,0,0,1,1.417.775,2.285,2.285,0,0,1,.759,1.918c-.011,2.973-.008,5.946-.008,8.92q0,14.866.009,29.733a2.6,2.6,0,0,1-.834,2.113,2.743,2.743,0,0,1-1.858.681c-2.624,0-5.247.016-7.871,0a2.546,2.546,0,0,1-2.693-2.573c-.013-1.609,0-3.217,0-4.826v-33.7c0-1.8.441-2.4,2.23-3.041Z" transform="translate(865.971 -85)"/>
  <path id="Path_205" data-name="Path 205" d="M-627.343,85a8.168,8.168,0,0,1,1.338.658,2.349,2.349,0,0,1,.895,2.039q-.007,5.688,0,11.376,0,13.66,0,27.319a2.45,2.45,0,0,1-1.5,2.472,3.5,3.5,0,0,1-1.345.267c-2.515.025-5.03.015-7.544.011a2.57,2.57,0,0,1-2.87-2.667q-.008-7.929,0-15.857,0-11.419-.006-22.838a2.527,2.527,0,0,1,1.541-2.538c.2-.095.424-.162.636-.242Z" transform="translate(663.207 -85)"/>
</svg>
