<svg xmlns="http://www.w3.org/2000/svg" width="52.78" height="60.346" viewBox="0 0 52.78 60.346">
  <g id="Group_346" data-name="Group 346" transform="translate(-707.772 -1235.692)">
    <g id="Group_64" data-name="Group 64" transform="translate(707.772 1235.692)">
      <path id="Path_125" data-name="Path 125" d="M1057.186-310.657a1.383,1.383,0,0,1-.791-1.382q.018-9.28.012-18.561c0-.153.023-.305.039-.5h2.13v.708q0,5.893,0,11.785c0,1.155.314,1.471,1.459,1.471h27.224c1.167,0,1.489-.327,1.489-1.519q0-24.336,0-48.671c0-1.2-.341-1.538-1.547-1.538l-27.105,0c-1.2,0-1.515.31-1.516,1.485q0,4.832,0,9.664c0,.213,0,.427,0,.682h-2.142c-.009-.173-.029-.361-.029-.548q0-5.981,0-11.962c0-1.134.342-1.468,1.483-1.468h31.525c1.143,0,1.479.332,1.479,1.465q0,28.7.011,57.393a1.59,1.59,0,0,1-.719,1.487Zm17.545-3.213a1.086,1.086,0,0,0-1.073-1.088,1.05,1.05,0,0,0-1.064,1.021,1.073,1.073,0,0,0,1.027,1.125A1.108,1.108,0,0,0,1074.73-313.871Z" transform="translate(-1038.125 371.003)"/>
      <path id="Path_126" data-name="Path 126" d="M1089.065-346.93h-2.1v4.265h-11.85V-352.3H1100.9v47.341h-25.768v-11.781h11.8v3.159h2.132Z" transform="translate(-1052.49 356.649)"/>
      <path id="Path_127" data-name="Path 127" d="M1054.968-269.912h-2.261c-4.792,0-9.584-.005-14.377.009-.468,0-.7-.094-.863-.6a5.348,5.348,0,0,0-3.975-3.618v-4.5a5.522,5.522,0,0,0,4.167-4.181h17.308Zm-2.137-6.464a4.3,4.3,0,0,0-4.3-4.307,4.335,4.335,0,0,0-4.311,4.313,4.316,4.316,0,0,0,4.318,4.3A4.277,4.277,0,0,0,1052.831-276.375Z" transform="translate(-1020.55 303.318)"/>
      <path id="Path_128" data-name="Path 128" d="M1026.536-281.962v2.112H1001.8v2.13h-5.364v-2.1h4.238v-21.521h25.856v2.114h-.779l-16.967.006c-1.287,0-1.472.167-1.63,1.451a3.251,3.251,0,0,1-3.045,2.854c-.885.059-1.242.41-1.248,1.29q-.018,3.034,0,6.068c0,.857.342,1.187,1.209,1.265a3.244,3.244,0,0,1,3.1,3.058c.066.909.429,1.262,1.341,1.265,2.2.006,4.4,0,6.6,0h11.438Zm-23.9-17.17v2.057h3.173v-2.057Z" transform="translate(-992.11 317.542)"/>
      <path id="Path_129" data-name="Path 129" d="M977.863-264.337h6.406v2.1h-6.406Z" transform="translate(-977.861 289.149)"/>
      <path id="Path_130" data-name="Path 130" d="M991.778-227.259h3.157v2.086h-3.157Z" transform="translate(-988.539 260.696)"/>
      <path id="Path_131" data-name="Path 131" d="M979.927-308.505h-2.074v-2.086h2.074Z" transform="translate(-977.853 324.644)"/>
      <path id="Path_132" data-name="Path 132" d="M996.382-308.5v-2.056h2.085v2.056Z" transform="translate(-992.072 324.62)"/>
      <path id="Path_133" data-name="Path 133" d="M978.91-227.217v2.1h-1v-2.1Z" transform="translate(-977.898 260.664)"/>
      <path id="Path_134" data-name="Path 134" d="M1093.208-262.3a2.182,2.182,0,0,1-2.167,2.18,2.176,2.176,0,0,1-2.144-2.141,2.17,2.17,0,0,1,2.165-2.179A2.18,2.18,0,0,1,1093.208-262.3Z" transform="translate(-1063.067 289.23)"/>
    </g>
  </g>
</svg>
