<svg xmlns="http://www.w3.org/2000/svg" xmlns:xlink="http://www.w3.org/1999/xlink" width="22" height="30" viewBox="0 0 22 30">
  <defs>
    <clipPath id="clip-Artboard_19">
      <rect width="22" height="30"/>
    </clipPath>
  </defs>
  <g id="Artboard_19" data-name="Artboard – 19" clip-path="url(#clip-Artboard_19)">
    <g id="recycle" transform="translate(0.316 1.538)">
      <g id="Group_16" data-name="Group 16" transform="translate(0 0)">
        <path id="Path_65" data-name="Path 65" d="M25.174,3.494V.411a.415.415,0,0,0-.643-.342L16.012,5.8a.413.413,0,0,0-.181.341.408.408,0,0,0,.181.342l8.515,5.732a.411.411,0,0,0,.643-.341V8.563a30.636,30.636,0,0,1,3.372.178c4.43.528,5.615,3.186,5.664,3.3a.408.408,0,0,0,.379.25.337.337,0,0,0,.08-.007.411.411,0,0,0,.331-.4C35,5.164,27.023,3.735,25.174,3.494Z" transform="translate(-15.019 0.001)"/>
        <path id="Path_66" data-name="Path 66" d="M31.893,59.285l-8.517-5.731a.413.413,0,0,0-.423-.026.419.419,0,0,0-.217.365v3.315a30.619,30.619,0,0,1-3.372-.179c-4.432-.527-5.618-3.185-5.664-3.3a.411.411,0,0,0-.379-.25.342.342,0,0,0-.082.008.411.411,0,0,0-.331.4c0,6.713,7.972,8.145,9.823,8.387v3.083a.413.413,0,0,0,.641.341l8.519-5.733a.415.415,0,0,0,.181-.342A.408.408,0,0,0,31.893,59.285Z" transform="translate(-12.909 -38.623)"/>
      </g>
    </g>
  </g>
</svg>
