<svg xmlns="http://www.w3.org/2000/svg" width="54.191" height="56.428" viewBox="0 0 54.191 56.428">
  <g id="Group_348" data-name="Group 348" transform="translate(-359.546 -1099.076)">
    <g id="decline_1_" data-name="decline (1)" transform="translate(359.546 1099.076)">
      <path id="Path_286" data-name="Path 286" d="M40.429,25.754c.094,0,.188,0,.282,0h.024q.792.014,1.57.1V6.658A6.666,6.666,0,0,0,35.631,0H6.674A6.666,6.666,0,0,0,0,6.658v38.3a6.666,6.666,0,0,0,6.674,6.658H26.007a16.758,16.758,0,0,1-2.543-8.922A16.97,16.97,0,0,1,40.429,25.754ZM23.935,10.871h9.89a1.653,1.653,0,1,1,0,3.306h-9.89a1.653,1.653,0,1,1,0-3.306Zm0,6.613h9.89a1.653,1.653,0,1,1,0,3.306h-9.89a1.653,1.653,0,1,1,0-3.306ZM18.37,40.74H8.48a1.653,1.653,0,1,1,0-3.306h9.89a1.653,1.653,0,1,1,0,3.306Zm0-6.724H8.48a1.653,1.653,0,1,1,0-3.306h9.89a1.653,1.653,0,1,1,0,3.306Zm0-6.613H8.48a1.653,1.653,0,1,1,0-3.306h9.89a1.653,1.653,0,1,1,0,3.306Zm0-6.613H8.48a1.653,1.653,0,1,1,0-3.306h9.89a1.653,1.653,0,1,1,0,3.306Zm0-6.613H8.48a1.653,1.653,0,1,1,0-3.306h9.89a1.653,1.653,0,1,1,0,3.306ZM22.278,25.75A1.655,1.655,0,0,1,23.935,24.1H28.7a1.653,1.653,0,1,1,0,3.306H23.935A1.655,1.655,0,0,1,22.278,25.75Zm0,0" transform="translate(0 0)"/>
      <path id="Path_287" data-name="Path 287" d="M264.962,266.786a13.689,13.689,0,0,0-9.565-4.1h-.024l-.224,0a13.766,13.766,0,0,0-13.762,13.739,13.748,13.748,0,0,0,13.762,13.739,13.733,13.733,0,0,0,9.813-23.371Zm-5.118,11.9a1.655,1.655,0,0,1-2.319,2.362l-2.377-2.321-2.377,2.321a1.655,1.655,0,1,1-2.319-2.362l2.327-2.273-2.327-2.273a1.655,1.655,0,0,1,2.319-2.363l2.377,2.322,2.377-2.322a1.655,1.655,0,1,1,2.319,2.363l-2.326,2.273Zm0,0" transform="translate(-214.72 -233.73)"/>
    </g>
  </g>
</svg>
