<svg xmlns="http://www.w3.org/2000/svg" width="39.193" height="62.505" viewBox="0 0 39.193 62.505">
  <g id="Group_345" data-name="Group 345" transform="translate(-1132.115 -1237.353)">
    <g id="payment-method" transform="translate(1132.115 1237.353)">
      <g id="Group_70" data-name="Group 70" transform="translate(0)">
        <g id="Group_66" data-name="Group 66" transform="translate(0)">
          <path id="Path_137" data-name="Path 137" d="M129.009,34.78c-.7-.549-8.025-8.676-10-9.824V3.866A3.863,3.863,0,0,0,115.14,0H95.224a3.863,3.863,0,0,0-3.866,3.866V40.79a3.863,3.863,0,0,0,3.866,3.866H103.9l-.357-3.037c-.115-.1-.191-.166-.306-.268H99.409a3.922,3.922,0,0,0-4.759-4.772V7.834a4.375,4.375,0,0,0,.714.064,3.918,3.918,0,0,0,3.917-3.917,4.193,4.193,0,0,0-.064-.689h11.891a4.193,4.193,0,0,0-.064.689A3.91,3.91,0,0,0,114.962,7.9a4.375,4.375,0,0,0,.714-.064V35.89h0v8.064c-1.352-1-2.858-4.108-2.858-4.108s-.74-8.28-4.938-8.28a2.882,2.882,0,0,0-.332.013s-3.177.268-.549,9.352l1.174,10.092a22.922,22.922,0,0,0,4.938,9.263v1.123a1.1,1.1,0,0,0,1.1,1.1h11.8a1.091,1.091,0,0,0,1.084-.97c.421-3.93,2.054-18.538,3.011-20.758a4.184,4.184,0,0,0,.332-1.1C130.655,38.429,130.731,36.133,129.009,34.78Z" transform="translate(-91.358 0)"/>
        </g>
        <g id="Group_67" data-name="Group 67" transform="translate(11.904 7.898)">
          <ellipse id="Ellipse_8" data-name="Ellipse 8" cx="2.348" cy="2.348" rx="2.348" ry="2.348"/>
        </g>
        <g id="Group_69" data-name="Group 69" transform="translate(5.346 14.111)">
          <g id="Group_68" data-name="Group 68">
            <path id="Path_138" data-name="Path 138" d="M133.258,119.085a8.5,8.5,0,0,0,6.622,8.28,6.026,6.026,0,0,1,.37-.612,4.906,4.906,0,0,1,3.521-2.207,6.231,6.231,0,0,1,.689-.038,6.528,6.528,0,0,1,3.075.766,8.481,8.481,0,1,0-14.277-6.188Zm3.394-.753c.51,0,.523,0,.6-.51a5.042,5.042,0,0,1,.332-1.136.324.324,0,0,1,.434-.217c.319.089.625.179.944.281.293.089.332.191.2.472a3.508,3.508,0,0,0-.357,1.8,1.16,1.16,0,0,0,.1.472.682.682,0,0,0,1.212.166,2.9,2.9,0,0,0,.434-.778c.2-.485.4-.97.638-1.416a2.546,2.546,0,0,1,3.879-.817,2.755,2.755,0,0,1,.906,1.416.392.392,0,0,0,.447.344c.255-.013.5,0,.753,0a.3.3,0,0,1,.344.332q.019.4,0,.8c0,.242-.14.345-.37.345H146.6c-.408,0-.421.013-.485.408a5.169,5.169,0,0,1-.408,1.442c-.179.357-.268.4-.638.293-.281-.077-.561-.153-.829-.242-.319-.1-.357-.191-.2-.485a4.631,4.631,0,0,0,.485-1.595,1.845,1.845,0,0,0-.14-1.046.811.811,0,0,0-1.429-.191,2.156,2.156,0,0,0-.345.6,14.433,14.433,0,0,1-.727,1.633,2.288,2.288,0,0,1-2.207,1.3,2.44,2.44,0,0,1-2.258-1.773c-.153-.434-.153-.434-.612-.447h-.459c-.344-.013-.408-.064-.408-.408v-.319C135.925,118.345,135.925,118.345,136.652,118.332Z" transform="translate(-133.258 -110.6)"/>
          </g>
        </g>
      </g>
    </g>
  </g>
</svg>
