<svg xmlns="http://www.w3.org/2000/svg" xmlns:xlink="http://www.w3.org/1999/xlink" width="106" height="80" viewBox="0 0 106 80">
  <defs>
    <clipPath id="clip-Artboard_10">
      <rect width="106" height="80"/>
    </clipPath>
  </defs>
  <g id="Artboard_10" data-name="Artboard – 10" clip-path="url(#clip-Artboard_10)">
    <rect width="106" height="80" fill="rgba(255,255,255,0)"/>
    <g id="scooter" transform="translate(-0.047 0.104)">
      <path id="Path_86" data-name="Path 86" d="M2.983,96.121A32.4,32.4,0,0,1,28.1,84.391h3.1v-10.6a3.022,3.022,0,0,0-3.1-2.934H3.1A3.022,3.022,0,0,0,0,73.793v19.4A3.012,3.012,0,0,0,2.983,96.121Zm0,0" transform="translate(0 -57.001)"/>
      <path id="Path_87" data-name="Path 87" d="M377.626,247.789l1.651,8.116a10.116,10.116,0,0,1,2.831,6.983c0,5.773-4.965,10.469-11.069,10.469a11.407,11.407,0,0,1-7.114-2.456l-7.859.116a17.472,17.472,0,0,0,14.973,8.207c9.525,0,17.273-7.328,17.273-16.336A16.385,16.385,0,0,0,377.626,247.789Zm0,0" transform="translate(-282.434 -199.328)"/>
      <path id="Path_88" data-name="Path 88" d="M88.667,143.47a3.171,3.171,0,0,0,2.359-1.083,2.821,2.821,0,0,0,.639-2.4L86.278,113.51,84.092,102.4A7.144,7.144,0,0,0,76.976,96.8h-9.5a2.938,2.938,0,1,0,0,5.867h9.5a1.021,1.021,0,0,1,1.017.8l1.965,9.982-8.782,12.854-18.255.372H52.9a1.061,1.061,0,0,1-.722-.279.952.952,0,0,1-.31-.7V114.063a3.022,3.022,0,0,0-3.1-2.934H28.108c-11.426,0-21.52,7.278-24.546,17.7L.126,140.655a2.809,2.809,0,0,0,.524,2.555,3.166,3.166,0,0,0,2.467,1.155h8.2c1.466,7.611,8.524,13.4,16.989,13.4,8.559,0,15.68-5.919,17.037-13.655ZM28.31,151.9a11.017,11.017,0,0,1-10.623-7.535H28.359l10.623-.158A11.007,11.007,0,0,1,28.31,151.9Zm0,0" transform="translate(-0.012 -77.872)"/>
      <path id="Path_89" data-name="Path 89" d="M3.118,5.867h9.616a3.021,3.021,0,0,0,3.1-2.934A3.021,3.021,0,0,0,12.734,0H3.118a3.021,3.021,0,0,0-3.1,2.934A3.021,3.021,0,0,0,3.118,5.867Zm0,0" transform="translate(-0.012)"/>
    </g>
  </g>
</svg>
