<svg xmlns="http://www.w3.org/2000/svg" xmlns:xlink="http://www.w3.org/1999/xlink" width="79" height="80" viewBox="0 0 79 80">
  <defs>
    <clipPath id="clip-Artboard_11">
      <rect width="79" height="80"/>
    </clipPath>
  </defs>
  <g id="Artboard_11" data-name="Artboard – 11" clip-path="url(#clip-Artboard_11)">
    <rect width="79" height="80" fill="rgba(255,255,255,0)"/>
    <path id="Path_3451" data-name="Path 3451" d="M39.294,0C60.978,0,78.552,17.9,78.552,40.018A40.189,40.189,0,0,1,58.214,75.092l-.071-1.516v-.108c-.071-1.84-.106-3.608-.142-5.232-.142-5.16-.319-10.825-.106-15.986.106-2.418,1.311-3.1,3.189-4.763,1.842-1.624,2.48-2.526,2.8-5.088a30.035,30.035,0,0,0-.213-7.361c-.213-2.454-.39-4.944-.6-7.361-.39-4.8-.992-10-1.169-14.795H60.765c.071,7.9-.071,15.841,0,23.744,0,1.191.106,2.382-1.134,2.382-1.24.036-1.134-1.083-1.134-2.237.035-7.866-.142-16.058,0-23.852l-1.24-.072V37.1c.035,1.516-.071,2.021-1.7,1.876-.779-1.119-.567-1.01-.567-2.67V12.882l-1.2-.036V33.811c0,1.588.673,6.243-1.7,5.052-.779-.4-.531-1.552-.531-2.706V12.846l-1.24.036c-.248,5.016-2.48,25.44-2.02,29.373a8.312,8.312,0,0,0,.815,3.031,27.58,27.58,0,0,0,3.968,3.933c1.913,1.479,1.276,7.83,1.276,10.717-.035,3.969-.106,8.913-.283,14.217l-.106,2.959a38.843,38.843,0,0,1-24.519,1.624l-.142-2.49v-.108c-.283-6.531-.354-12.485-.39-16.527,0-2.923-.071-5.99.035-8.913.142-4.005,5.492-3,8.787-8.877A13.1,13.1,0,0,0,39.4,34.605c-.177-5.2-2.587-12.774-5.421-16.707-1.028-1.407-2.941-3.753-4.464-4.511a5.71,5.71,0,0,0-3.72-.4c-2.587.577-3.791,2.165-5.031,3.9a33.628,33.628,0,0,0-3.224,5.629c-2.728,6.243-5.031,14.867-.283,20.857,1.559,1.949,2.622,2.49,5.031,3.789A7.524,7.524,0,0,1,24.7,49.075c.744,1.119.461,2.67.5,4.15.142,5.665,0,13.64-.319,21.543l-.035.289v.4l-.071,1.624h0v.108A39.989,39.989,0,0,1,0,40.018C0,17.9,17.574,0,39.294,0Z" transform="translate(0.434)" fill-rule="evenodd"/>
  </g>
</svg>
