<svg id="fire_1_" data-name="fire (1)" xmlns="http://www.w3.org/2000/svg" width="44.908" height="54.777" viewBox="0 0 44.908 54.777">
  <path id="Path_203" data-name="Path 203" d="M47.778,54.777c-3.447-7.6-1.611-11.949,1.038-16.05a26.449,26.449,0,0,0,3.649-8.937,10.979,10.979,0,0,1,1.368,8.051c4.029-4.75,4.79-12.318,4.181-15.217,9.108,6.741,13,21.336,7.755,32.153,27.9-16.718,6.94-41.734,3.291-44.552,1.216,2.818,1.447,7.588-1.01,9.9C63.89,3.424,53.605,0,53.605,0c1.216,8.615-4.409,18.035-9.834,25.074-.191-3.435-.393-5.806-2.1-9.093-.383,6.24-4.886,11.327-6.105,17.579C33.915,42.028,36.8,48.227,47.778,54.777Z" transform="translate(-35.136 0)"/>
</svg>
