<svg xmlns="http://www.w3.org/2000/svg" width="37.979" height="49.774" viewBox="0 0 37.979 49.774">
  <g id="Group_349" data-name="Group 349" transform="translate(-294.848 -1239.99)">
    <g id="Group_63" data-name="Group 63" transform="translate(294.848 1239.99)">
      <path id="Path_112" data-name="Path 112" d="M668.473-402.816c.142-.109.25-.2.366-.279q3.617-2.5,7.236-5a1.781,1.781,0,0,1,2.235.011l7.2,4.971c.119.082.236.17.393.283-.113.094-.2.18-.3.247q-4.041,2.7-8.083,5.4c-.194.129-.342.22-.6.049-2.741-1.845-5.495-3.672-8.244-5.5A2.624,2.624,0,0,1,668.473-402.816Z" transform="translate(-658.197 408.486)"/>
      <path id="Path_113" data-name="Path 113" d="M670.523-271.3l7.578-5.047c.719-.479.719-.479,1.44,0l7.117,4.746c.134.09.266.182.437.3-.112.093-.2.18-.3.246q-3.82,2.551-7.641,5.1c-.192.128-.34.227-.6.054-2.607-1.755-5.226-3.492-7.842-5.235A2.519,2.519,0,0,1,670.523-271.3Z" transform="translate(-659.83 303.53)"/>
      <path id="Path_114" data-name="Path 114" d="M625.308-323.329l-3.823-2.548c-1.038-.692-2.083-1.374-3.109-2.084a.771.771,0,0,1-.328-.515c-.019-3.518-.014-7.036-.012-10.555a1.3,1.3,0,0,1,.036-.19c.167.1.315.188.457.283,2.158,1.437,4.318,2.871,6.466,4.321a.761.761,0,0,1,.328.509c.018,3.5.012,7,.01,10.506C625.334-323.539,625.322-323.477,625.308-323.329Z" transform="translate(-618.025 353.319)"/>
      <path id="Path_115" data-name="Path 115" d="M768.648-323.236c0-2.442,0-4.808,0-7.175,0-1.184-.007-2.368.012-3.551a.654.654,0,0,1,.218-.473q3.445-2.326,6.911-4.622a.563.563,0,0,1,.134-.034c.01.126.029.244.029.363,0,3.422,0,6.844-.012,10.265a.761.761,0,0,1-.258.553c-2.254,1.527-4.523,3.032-6.789,4.542C768.842-323.334,768.785-323.309,768.648-323.236Z" transform="translate(-737.98 353.216)"/>
      <path id="Path_116" data-name="Path 116" d="M640.308-365.84c-.686.46-1.328.891-1.972,1.321q-1.9,1.268-3.8,2.536a.451.451,0,0,1-.6.04q-4.133-2.783-8.283-5.539a1.641,1.641,0,0,1-.139-.124,3.653,3.653,0,0,1,.286-.237q2.728-1.824,5.457-3.645a.449.449,0,0,1,.6-.037c2.755,1.855,5.522,3.693,8.285,5.536C640.179-365.963,640.212-365.926,640.308-365.84Z" transform="translate(-623.983 379.127)"/>
      <path id="Path_117" data-name="Path 117" d="M724.287-365.753c.187-.135.311-.231.442-.318,2.643-1.762,5.29-3.517,7.925-5.291a.573.573,0,0,1,.761,0c1.878,1.271,3.77,2.522,5.706,3.812a3.921,3.921,0,0,1-.3.252q-4.043,2.7-8.093,5.389a.622.622,0,0,1-.538.069C728.235-363.112,726.3-364.412,724.287-365.753Z" transform="translate(-702.65 379.032)"/>
      <path id="Path_118" data-name="Path 118" d="M668.213-234.245l3.569,2.377c1.146.764,2.3,1.522,3.432,2.3a.662.662,0,0,1,.287.44c.012,3.015,0,6.029,0,9.044,0,.013-.014.026-.042.076-.133-.079-.27-.152-.4-.238-2.158-1.437-4.31-2.88-6.475-4.307a.734.734,0,0,1-.379-.7c.013-2.821.008-5.641.008-8.462Z" transform="translate(-657.983 269.712)"/>
      <path id="Path_119" data-name="Path 119" d="M718.417-219.823v-.525c0-2.821,0-5.642-.008-8.463a.733.733,0,0,1,.37-.708c2.18-1.433,4.347-2.885,6.519-4.331.116-.077.239-.143.421-.25v.49c0,2.821-.005,5.642.007,8.463a.734.734,0,0,1-.372.707C723.068-222.934,720.8-221.409,718.417-219.823Z" transform="translate(-697.968 269.597)"/>
      <path id="Path_120" data-name="Path 120" d="M625.3-253.247c-.192-.116-.315-.185-.432-.262-1.981-1.32-3.954-2.652-5.946-3.954a1.878,1.878,0,0,1-.931-1.736c.023-2.737.009-5.475.009-8.275.147.077.259.122.357.188q3.315,2.208,6.623,4.427a.711.711,0,0,1,.306.477C625.3-259.369,625.3-256.356,625.3-253.247Z" transform="translate(-617.989 296.177)"/>
      <path id="Path_121" data-name="Path 121" d="M775.964-267.726v.523c0,2.609-.013,5.218.008,7.826a1.843,1.843,0,0,1-.91,1.7c-2.005,1.313-3.992,2.653-5.986,3.982-.106.071-.216.136-.373.234-.016-.158-.038-.275-.038-.393,0-2.868-.005-5.736.007-8.6a.722.722,0,0,1,.21-.529C771.2-264.558,773.534-266.107,775.964-267.726Z" transform="translate(-737.993 296.378)"/>
      <path id="Path_122" data-name="Path 122" d="M675.545-329.9c0,.648,0,1.195,0,1.741,0,2.01,0,4.02-.012,6.029a.724.724,0,0,1-.209.529c-2.319,1.57-4.653,3.119-7.032,4.7a2.753,2.753,0,0,1-.048-.345c0-2.48-.006-4.96.007-7.44a.659.659,0,0,1,.209-.482C670.78-326.729,673.113-328.279,675.545-329.9Z" transform="translate(-658.012 345.896)"/>
      <path id="Path_123" data-name="Path 123" d="M725.754-316.639l-3.158-2.106c-1.281-.853-2.566-1.7-3.836-2.569a.711.711,0,0,1-.3-.482c-.017-2.561-.009-5.122-.006-7.683a.771.771,0,0,1,.037-.141c.144.086.28.159.407.244,2.157,1.437,4.31,2.88,6.473,4.307a.732.732,0,0,1,.388.7c-.017,2.415-.009,4.83-.009,7.245Z" transform="translate(-698.003 345.673)"/>
    </g>
  </g>
</svg>
