<svg id="menu" xmlns="http://www.w3.org/2000/svg" width="48.692" height="48.692" viewBox="0 0 48.692 48.692">
  <path id="Path_139" data-name="Path 139" d="M6.956,40a6.956,6.956,0,1,0,6.956,6.956A6.964,6.964,0,0,0,6.956,40Z" transform="translate(0 -5.22)"/>
  <path id="Path_140" data-name="Path 140" d="M26.956,40a6.956,6.956,0,1,0,6.956,6.956A6.964,6.964,0,0,0,26.956,40Z" transform="translate(-2.61 -5.22)"/>
  <path id="Path_141" data-name="Path 141" d="M46.956,40a6.956,6.956,0,1,0,6.956,6.956A6.964,6.964,0,0,0,46.956,40Z" transform="translate(-5.22 -5.22)"/>
  <path id="Path_142" data-name="Path 142" d="M6.956,20a6.956,6.956,0,1,0,6.956,6.956A6.964,6.964,0,0,0,6.956,20Z" transform="translate(0 -2.61)"/>
  <path id="Path_143" data-name="Path 143" d="M26.956,20a6.956,6.956,0,1,0,6.956,6.956A6.964,6.964,0,0,0,26.956,20Z" transform="translate(-2.61 -2.61)"/>
  <path id="Path_144" data-name="Path 144" d="M46.956,20a6.956,6.956,0,1,0,6.956,6.956A6.964,6.964,0,0,0,46.956,20Z" transform="translate(-5.22 -2.61)"/>
  <path id="Path_145" data-name="Path 145" d="M6.956,0a6.956,6.956,0,1,0,6.956,6.956A6.964,6.964,0,0,0,6.956,0Z"/>
  <path id="Path_146" data-name="Path 146" d="M26.956,0a6.956,6.956,0,1,0,6.956,6.956A6.964,6.964,0,0,0,26.956,0Z" transform="translate(-2.61)"/>
  <path id="Path_147" data-name="Path 147" d="M46.956,13.912A6.956,6.956,0,1,0,40,6.956,6.964,6.964,0,0,0,46.956,13.912Z" transform="translate(-5.22)"/>
</svg>
